<?xml version="1.0" encoding="UTF-8"?>
<svg width="14px" height="14px" viewBox="0 0 14 14" version="1.1" xmlns="http://www.w3.org/2000/svg" xmlns:xlink="http://www.w3.org/1999/xlink">
    <g id="Page-1" stroke="none" stroke-width="1" fill="none" fill-rule="evenodd">
        <path d="M7.5,1 C11.09,1 14,3.91 14,7.5 C14,11.09 11.09,14 7.5,14 C3.91,14 1,11.09 1,7.5 C1,3.91 3.91,1 7.5,1 Z M7.44,11.94 C8.32,11.94 9.14,11.69 9.83,11.25 L3.63,5.05 C3.2,5.74 2.94,6.56 2.94,7.44 C2.94,9.92 4.96,11.94 7.44,11.94 Z M11.94,7.44 C11.94,4.96 9.92,2.94 7.44,2.94 C6.56,2.94 5.74,3.19 5.05,3.63 L11.25,9.83 C11.68,9.14 11.94,8.32 11.94,7.44 Z" id="Combined-Shape" fill="#000000"></path>
    </g>
</svg>